# Blender v2.83.13 OBJ File: 'pack.blend'
# www.blender.org
mtllib morley.mtl
o Cube
v 0.746161 0.025728 -0.309760
v 0.746161 0.025728 0.251579
v 0.484078 2.501608 -0.185529
v 0.484078 2.501608 0.127348
v -0.783925 0.025728 -0.309760
v -0.783925 0.025728 0.251579
v -0.521842 2.501608 -0.185529
v -0.521842 2.501608 0.127348
v -0.783925 2.501608 0.251579
v -0.783925 2.501608 -0.309760
v 0.746161 2.501608 -0.309760
v 0.746161 2.501608 0.251579
vt 0.350679 0.301044
vt 0.685696 0.301044
vt 0.685696 0.998852
vt 0.350679 0.998852
vt 0.591098 0.171881
vt 0.591098 0.074006
vt 0.830450 0.074006
vt 0.830450 0.171881
vt 0.994053 0.996029
vt 0.848057 0.996029
vt 0.848057 0.225250
vt 0.994053 0.225250
vt 0.002578 0.302129
vt 0.333282 0.302129
vt 0.333282 0.999551
vt 0.002578 0.999551
vt 0.694253 0.224020
vt 0.841559 0.224020
vt 0.841559 0.996948
vt 0.694253 0.996948
vt 0.042542 0.195280
vt 0.042542 0.020099
vt 0.414958 0.020099
vt 0.414958 0.195280
vt 0.887962 0.119904
vt 0.887962 0.097866
vt 0.890726 0.094742
vt 0.890726 0.123028
vt 0.825270 0.097866
vt 0.825270 0.119904
vt 0.822506 0.123028
vt 0.822506 0.094742
vn 0.5773 -0.5773 -0.5773
vn -0.5773 -0.5773 -0.5773
vn -0.5773 0.5773 -0.5773
vn 0.5773 0.5773 -0.5773
vn 0.0000 1.0000 0.0000
vn -0.5773 0.5773 0.5773
vn -0.5773 -0.5773 0.5773
vn 0.5773 -0.5773 0.5773
vn 0.5773 0.5773 0.5773
usemtl Material
s 1
f 1/1/1 5/2/2 10/3/3 11/4/4
f 4/5/5 3/6/5 7/7/5 8/8/5
f 9/9/6 10/10/3 5/11/2 6/12/7
f 6/13/7 2/14/8 12/15/9 9/16/6
f 2/17/8 1/18/1 11/19/4 12/20/9
f 6/21/7 5/22/2 1/23/1 2/24/8
f 8/25/5 7/26/5 10/27/3 9/28/6
f 3/29/5 4/30/5 12/31/9 11/32/4
f 7/26/5 3/29/5 11/32/4 10/27/3
f 4/30/5 8/25/5 9/28/6 12/31/9
